<?xml version="1.0" standalone="no"?>
<!DOCTYPE svg PUBLIC "-//W3C//DTD SVG 20010904//EN"
 "http://www.w3.org/TR/2001/REC-SVG-20010904/DTD/svg10.dtd">
<svg version="1.0" xmlns="http://www.w3.org/2000/svg"
 width="1056.000000pt" height="253.000000pt" viewBox="0 0 1056.000000 253.000000"
 preserveAspectRatio="xMidYMid meet">

<g transform="translate(0.000000,253.000000) scale(0.100000,-0.100000)"
fill="#fa3200" stroke="none">
<path d="M0 1260 l0 -1260 1040 0 1040 0 0 1260 0 1260 -1040 0 -1040 0 0
-1260z m1140 1040 c0 -5 -137 -368 -305 -806 -216 -563 -302 -800 -295 -809
17 -20 0 -25 -92 -25 -69 0 -90 3 -94 15 -7 16 603 1616 620 1627 16 11 166
10 166 -2z m399 -1048 c112 -301 210 -557 218 -570 l13 -22 -87 0 c-49 0 -93
4 -100 8 -14 9 -413 1070 -413 1099 0 30 7 33 89 33 l76 0 204 -548z m-439
-57 c47 -24 70 -62 70 -116 0 -40 -5 -53 -33 -82 -82 -88 -217 -33 -217 88 0
91 99 152 180 110z m770 -875 l0 -60 -810 0 -810 0 0 60 0 60 810 0 810 0 0
-60z"/>
<path d="M2872 2283 c-22 -41 -612 -1592 -612 -1607 0 -14 13 -16 89 -16 59 0
92 4 98 13 5 6 124 317 263 690 140 372 256 677 259 677 3 0 122 -310 265
-690 l258 -690 94 0 c82 0 94 2 94 17 0 10 -138 379 -307 820 l-307 803 -93 0
c-78 0 -94 -3 -101 -17z"/>
<path d="M3567 2287 c-3 -8 87 -254 199 -548 112 -294 252 -659 311 -811 l106
-278 94 0 c87 0 94 1 104 23 5 12 146 378 313 812 214 557 300 794 293 803 -6
8 -38 12 -92 12 -54 0 -86 -4 -92 -12 -5 -7 -124 -318 -263 -691 -140 -372
-256 -677 -259 -677 -3 0 -120 305 -260 678 -139 372 -258 683 -263 690 -15
18 -184 17 -191 -1z"/>
<path d="M5215 2288 c-3 -7 -4 -377 -3 -823 l3 -810 90 0 90 0 3 809 c1 589
-1 812 -9 822 -15 19 -167 20 -174 2z"/>
<path d="M6314 2292 c-14 -9 -634 -1624 -628 -1634 3 -5 47 -8 99 -8 l93 0 24
63 c13 34 130 344 259 689 128 345 236 628 239 628 3 0 111 -283 239 -628 129
-345 246 -655 259 -689 l24 -63 93 0 c52 0 96 4 99 9 6 9 -599 1606 -617 1629
-10 13 -164 17 -183 4z"/>
<path d="M7397 2293 c-4 -3 -7 -375 -7 -825 l0 -818 90 0 90 0 0 680 c0 374 3
680 8 680 4 -1 214 -307 467 -681 l460 -679 110 2 110 3 0 820 0 820 -70 3
c-38 2 -80 0 -92 -3 l-23 -5 -2 -673 -3 -672 -454 663 c-249 364 -460 669
-468 677 -11 11 -40 15 -112 15 -54 0 -101 -3 -104 -7z"/>
<path d="M9602 2238 c-11 -29 -151 -395 -311 -812 -160 -418 -287 -764 -283
-768 5 -5 48 -8 97 -6 l88 3 253 675 c139 371 257 684 262 694 6 15 71 -146
268 -675 l260 -694 92 -3 c68 -2 94 1 97 10 2 7 -134 375 -303 818 l-308 805
-96 3 -96 3 -20 -53z"/>
<path d="M2924 1180 c-36 -14 -74 -68 -74 -106 0 -73 49 -124 120 -124 69 0
120 51 120 120 0 82 -89 141 -166 110z"/>
<path d="M6343 1170 c-59 -36 -80 -110 -45 -163 29 -43 53 -56 104 -57 41 0
52 5 83 35 29 29 35 43 35 76 0 51 -25 94 -66 114 -43 20 -72 19 -111 -5z"/>
<path d="M9664 1171 c-30 -18 -64 -74 -64 -106 0 -26 27 -71 56 -94 18 -14 41
-21 71 -21 38 0 50 5 79 34 29 29 34 41 34 80 0 101 -93 157 -176 107z"/>
<path d="M2893 515 c-147 -73 -156 -281 -16 -375 32 -22 48 -25 118 -25 74 0
86 3 123 29 137 94 125 298 -21 371 -68 34 -136 34 -204 0z m186 -53 c42 -31
64 -69 69 -121 15 -160 -169 -243 -270 -122 -54 64 -45 178 17 228 19 16 45
31 57 35 34 10 100 0 127 -20z"/>
<path d="M4062 529 c-18 -5 -52 -29 -76 -52 -140 -135 -44 -366 152 -367 59 0
108 19 141 54 l21 23 -24 12 c-21 12 -28 10 -53 -9 -68 -50 -178 -24 -215 50
-39 77 -14 186 52 224 46 27 121 26 158 -1 27 -20 29 -20 51 -4 21 16 21 17 4
34 -47 42 -136 57 -211 36z"/>
<path d="M6795 521 c-83 -38 -126 -106 -126 -196 0 -66 18 -110 66 -157 77
-76 216 -79 283 -5 l24 25 -21 12 c-18 9 -27 7 -52 -11 -73 -52 -180 -25 -218
55 -50 102 -6 206 100 237 35 11 46 10 95 -11 48 -20 58 -21 70 -8 12 12 12
17 -6 35 -40 44 -147 56 -215 24z"/>
<path d="M8082 520 c-80 -36 -123 -104 -123 -195 0 -67 21 -116 68 -160 95
-88 259 -68 333 42 22 32 25 48 25 118 0 74 -3 86 -29 123 -57 83 -179 115
-274 72z m140 -42 c80 -24 123 -114 99 -205 -29 -107 -157 -147 -242 -76 -112
94 -54 283 90 292 7 1 31 -4 53 -11z"/>
<path d="M8875 529 c-78 -22 -145 -118 -145 -205 0 -118 97 -213 218 -214 127
0 222 91 222 215 0 150 -143 249 -295 204z m145 -61 c57 -30 83 -73 83 -143 0
-70 -26 -113 -83 -142 -56 -29 -84 -29 -140 -1 -53 28 -80 75 -80 141 0 69 31
124 83 148 55 24 83 24 137 -3z"/>
<path d="M9355 521 c-43 -19 -100 -78 -116 -118 -13 -36 -11 -129 5 -166 21
-52 100 -115 153 -123 52 -8 135 -1 176 15 27 10 27 11 27 111 l0 100 -75 0
c-73 0 -75 -1 -75 -25 0 -23 3 -25 50 -25 l50 0 0 -49 c0 -63 -14 -74 -95 -75
-50 -1 -70 4 -92 20 -44 33 -67 81 -67 139 0 67 27 114 84 143 50 25 97 24
152 -4 27 -14 31 -14 50 3 20 17 20 18 -2 35 -49 40 -159 49 -225 19z"/>
<path d="M10274 526 c-69 -31 -96 -115 -54 -169 11 -14 46 -35 78 -47 83 -31
102 -46 102 -80 0 -66 -96 -94 -152 -43 -13 11 -21 12 -38 3 -26 -14 -22 -27
14 -54 22 -17 42 -21 98 -21 68 0 70 1 104 37 28 31 34 46 34 81 0 59 -27 86
-118 121 -55 21 -73 33 -78 51 -8 34 3 60 32 73 34 16 59 15 96 -4 29 -15 32
-15 50 4 20 19 19 19 -24 41 -50 24 -99 26 -144 7z"/>
<path d="M2270 326 l0 -206 30 0 30 0 0 163 1 162 65 -162 c87 -216 88 -216
168 -12 33 82 63 152 68 155 4 3 8 -65 8 -150 l0 -156 30 0 30 0 0 205 0 205
-47 0 -48 0 -56 -148 c-31 -81 -60 -147 -64 -147 -4 0 -33 65 -64 145 l-57
145 -47 3 -47 3 0 -205z"/>
<path d="M3290 325 l0 -205 125 0 125 0 0 25 c0 25 0 25 -95 25 l-95 0 0 180
0 180 -30 0 -30 0 0 -205z"/>
<path d="M3590 325 l0 -205 140 0 140 0 0 25 0 25 -110 0 -110 0 0 70 0 70
101 0 c98 0 100 0 97 23 -3 21 -8 22 -100 25 l-98 3 0 59 0 60 105 0 105 0 0
25 0 25 -135 0 -135 0 0 -205z"/>
<path d="M4350 385 c0 -161 7 -191 59 -240 26 -24 41 -30 94 -33 52 -3 67 0
96 20 66 44 76 74 80 246 l3 152 -36 0 -36 0 0 -154 c0 -138 -2 -156 -20 -179
-25 -32 -69 -42 -114 -27 -53 17 -66 62 -66 225 l0 135 -30 0 -30 0 0 -145z"/>
<path d="M4770 325 l0 -205 125 0 125 0 0 25 c0 25 0 25 -95 25 l-95 0 0 180
0 180 -30 0 -30 0 0 -205z"/>
<path d="M5147 331 c-48 -109 -87 -201 -87 -205 0 -3 14 -6 31 -6 27 0 32 5
51 50 l21 50 96 0 97 0 21 -50 c19 -45 25 -50 52 -50 17 0 31 4 31 9 0 5 -20
53 -44 107 -24 55 -62 143 -86 197 -38 88 -45 97 -69 97 -26 0 -32 -10 -114
-199z m151 36 c17 -45 32 -86 32 -90 0 -4 -31 -7 -70 -7 -38 0 -70 3 -70 7 0
13 65 173 70 173 3 0 20 -37 38 -83z"/>
<path d="M5520 326 l0 -206 30 0 30 0 0 90 0 90 29 0 c25 0 34 -10 80 -90 50
-86 54 -90 87 -90 40 0 42 -7 -30 109 l-46 75 28 12 c40 17 63 47 69 92 5 35
1 44 -30 78 l-35 38 -106 4 -106 4 0 -206z m201 125 c11 -13 19 -29 19 -36 0
-7 -8 -23 -19 -36 -14 -18 -31 -23 -80 -27 l-61 -4 0 67 0 67 61 -4 c49 -4 66
-9 80 -27z"/>
<path d="M5960 505 c0 -24 2 -25 65 -25 l65 0 0 -180 0 -180 30 0 30 0 0 180
0 180 65 0 c63 0 65 1 65 25 l0 25 -160 0 -160 0 0 -25z"/>
<path d="M6330 325 l0 -205 140 0 140 0 0 25 0 25 -105 0 -105 0 0 70 0 70 95
0 c95 0 95 0 95 25 0 25 0 25 -95 25 l-95 0 0 60 0 60 100 0 100 0 0 25 0 25
-135 0 -135 0 0 -205z"/>
<path d="M7100 325 l0 -205 30 0 30 0 0 95 0 96 103 -3 102 -3 3 -92 3 -93 29
0 30 0 0 205 0 205 -30 0 -30 0 0 -85 0 -85 -105 0 -105 0 0 85 0 85 -30 0
-30 0 0 -205z"/>
<path d="M7520 325 l0 -205 35 0 35 0 0 163 0 162 106 -162 106 -163 39 0 39
0 0 205 0 205 -30 0 -30 0 0 -155 c0 -85 -3 -155 -7 -155 -5 0 -54 70 -111
155 l-102 155 -40 0 -40 0 0 -205z"/>
<path d="M8470 325 l0 -205 125 0 125 0 0 25 c0 25 0 25 -95 25 l-95 0 0 180
0 180 -30 0 -30 0 0 -205z"/>
<path d="M9700 325 l0 -205 30 0 30 0 0 205 0 205 -30 0 -30 0 0 -205z"/>
<path d="M9860 325 l0 -205 140 0 140 0 0 25 0 25 -110 0 -111 0 3 68 3 67 98
3 c95 3 98 3 95 25 -3 21 -9 22 -100 25 l-98 3 0 59 0 60 105 0 105 0 0 25 0
25 -135 0 -135 0 0 -205z"/>
</g>
</svg>
